<svg xmlns="http://www.w3.org/2000/svg" width="300" height="300" viewBox="0 0 300 300"><path fill="#7888bf" fill-rule="evenodd" d="M180.5 195.8c-14.7 10.9-36.1 16.7-54.5 16.7a99 99 0 0 1-66.7-25.4c-1.3-1.3-.2-2.9 1.5-2a134.5 134.5 0 0 0 66.7 17.7 132.7 132.7 0 0 0 50.9-10.4c2.5-1 4.6 1.7 2.1 3.4z" opacity=".45" style="isolation:isolate"/><path fill="#7888bf" fill-rule="evenodd" d="M186.7 188.9c-1.9-2.4-12.5-1.2-17.2-.6-1.4.2-1.7-1-.4-1.9 8.5-6 22.3-4.2 23.9-2.2s-.4 15.8-8.4 22.4c-1.2 1-2.4.5-1.8-.9 1.8-4.5 5.8-14.4 3.9-16.8z" opacity=".45" style="isolation:isolate"/><path fill="#46527c" fill-rule="evenodd" d="M169.7 144.4v-5.8a1.4 1.4 0 0 1 1.3-1.4h26a1.5 1.5 0 0 1 1.5 1.4v4.9c0 .8-.7 1.9-1.9 3.7l-13.4 19a28.8 28.8 0 0 1 14.7 3.2 2.8 2.8 0 0 1 1.4 2.2v6.1c0 .9-.9 1.9-1.9 1.4a29.3 29.3 0 0 0-27.3.1 1.5 1.5 0 0 1-1.8-.9 4.3 4.3 0 0 1-.1-.5v-5.9a6.9 6.9 0 0 1 1-3.9l15.6-22.2h-13.4a1.6 1.6 0 0 1-1.7-1.4zm-94.2 36h-7.8a1.8 1.8 0 0 1-1.5-1.3v-40.3a1.5 1.5 0 0 1 1.6-1.4h7.3a1.4 1.4 0 0 1 1.4 1.3v5.2h.2c1.8-5 5.5-7.4 10.3-7.4s8 2.4 10.2 7.4a11.7 11.7 0 0 1 20-3c2.4 3.4 1.9 8.3 1.9 12.7v25.5a1.5 1.5 0 0 1-1.5 1.4h-7.8a1.7 1.7 0 0 1-1.5-1.4v-21.4a47.9 47.9 0 0 0-.2-7.6c-.6-2.7-2.3-3.5-4.6-3.5a5.4 5.4 0 0 0-4.7 3.3c-.8 2.1-.7 5.5-.7 7.8v21.4a1.5 1.5 0 0 1-1.5 1.4h-7.9a1.5 1.5 0 0 1-1.4-1.4v-21.4c0-4.5.7-11.2-4.8-11.2S77 153 77 157.7v21.4a1.4 1.4 0 0 1-1.5 1.3zm145.3-44c11.7 0 18 10 18 22.8s-7 22.1-18.1 22.1-17.6-10.1-17.6-22.6 6.3-22.3 17.7-22.3zm.1 8.3c-5.8 0-6.1 7.9-6.1 12.8s-.1 15.4 6 15.4 6.5-8.4 6.5-13.6a38.6 38.6 0 0 0-1.2-10.7c-1-2.9-2.7-3.9-5.2-3.9zm33 35.7h-7.8a1.6 1.6 0 0 1-1.5-1.4v-40.4a1.5 1.5 0 0 1 1.6-1.3h7.3a1.6 1.6 0 0 1 1.4 1.1v6.2h.2c2.2-5.6 5.2-8.1 10.7-8.1a10.2 10.2 0 0 1 9.1 4.7c2.1 3.2 2.1 8.6 2.1 12.6v25.4a1.5 1.5 0 0 1-1.5 1.2h-7.9a1.7 1.7 0 0 1-1.4-1.2v-22c0-4.4.6-10.8-4.9-10.8a4.8 4.8 0 0 0-4.5 3.2 17.9 17.9 0 0 0-1.3 7.6V179a1.6 1.6 0 0 1-1.6 1.4zm-104.7-19.3c0 3 0 5.6-1.5 8.3a6.3 6.3 0 0 1-5.4 3.6c-3 0-4.8-2.3-4.8-5.7 0-6.7 6-7.9 11.7-7.9zm7.9 19.1a1.5 1.5 0 0 1-1.9.2 20.3 20.3 0 0 1-4.5-5.2c-4.3 4.3-7.4 5.7-13 5.7s-11.7-4.1-11.7-12.3a13.2 13.2 0 0 1 8.4-12.8c4.2-1.9 10.2-2.2 14.8-2.8v-.9c0-1.9.1-4.1-1-5.7a5.2 5.2 0 0 0-4.4-2.1c-3 0-5.7 1.5-6.3 4.7-.2.7-.6 1.5-1.4 1.5l-7.5-.8a1.4 1.4 0 0 1-1.2-1.6c1.7-9.2 10.1-12 17.6-12 3.8 0 8.8 1 11.8 3.9s3.5 8.4 3.5 13.6v12.2c0 3.7 1.5 5.3 2.9 7.3s.7 1.6 0 2.1-4.5 3.8-6.1 5.1zM46.2 161.1c0 3 .1 5.6-1.4 8.3a6.5 6.5 0 0 1-5.5 3.6c-3 0-4.8-2.3-4.8-5.7 0-6.7 6-7.9 11.7-7.9zm7.9 19.1a1.5 1.5 0 0 1-1.9.2 20.3 20.3 0 0 1-4.5-5.2c-4.3 4.3-7.4 5.7-12.9 5.7S23 176.8 23 168.6a13.3 13.3 0 0 1 8.4-12.8c4.3-1.9 10.2-2.2 14.8-2.8v-.9c0-1.9.2-4.1-1-5.7a5 5 0 0 0-4.4-2c-3 0-5.7 1.5-6.3 4.7-.2.7-.6 1.4-1.3 1.4l-7.6-.8a1.3 1.3 0 0 1-1.2-1.5c1.6-9.3 10-12.1 17.5-12.1 3.8 0 8.8 1 11.9 3.9s3.4 8.4 3.4 13.6v12.2c0 3.7 1.6 5.3 3 7.3a1.5 1.5 0 0 1 0 2.1c-1.7 1.2-4.6 3.7-6.1 5z"/></svg>