<svg id="Group_322" data-name="Group 322" xmlns="http://www.w3.org/2000/svg" width="218.25" height="65.728" viewBox="0 0 218.25 65.728">
  <path id="Path_221" data-name="Path 221" d="M144.731,64.216c-12.64,9.346-31.025,14.325-46.883,14.325a85,85,0,0,1-57.3-21.833c-1.149-1.072-.153-2.528,1.3-1.685a115.145,115.145,0,0,0,57.3,15.168,114.01,114.01,0,0,0,43.742-8.963C145.038,60.386,146.876,62.684,144.731,64.216Z" transform="translate(-9.369 -12.813)" fill="#ce808a" fill-rule="evenodd" opacity="0.345"/>
  <path id="Path_222" data-name="Path 222" d="M178.763,57.571c-1.609-2.068-10.725-1-14.785-.46-1.226.153-1.456-.919-.306-1.685,7.278-5.133,19.151-3.6,20.53-1.915s-.383,13.636-7.2,19.3c-1.072.843-2.068.383-1.609-.766C176.924,68.143,180.371,59.639,178.763,57.571Z" transform="translate(-38.114 -12.144)" fill="#ce808a" fill-rule="evenodd" opacity="0.345"/>
  <path id="Path_223" data-name="Path 223" d="M164.2,7.505V2.526A1.166,1.166,0,0,1,165.428,1.3h22.216a1.277,1.277,0,0,1,1.3,1.226V6.739c0,.689-.613,1.609-1.685,3.141L175.77,26.274a24.957,24.957,0,0,1,12.64,2.681,2.282,2.282,0,0,1,1.149,1.915v5.286c0,.766-.766,1.609-1.609,1.149a25.343,25.343,0,0,0-23.441.077,1.2,1.2,0,0,1-1.609-1.149V31.176a5.724,5.724,0,0,1,.843-3.371L177.149,8.731H165.581A1.348,1.348,0,0,1,164.2,7.505Z" transform="translate(-38.109 -0.304)" fill="#ce808a" fill-rule="evenodd"/>
  <path id="Path_224" data-name="Path 224" d="M56.467,38.267H49.726A1.383,1.383,0,0,1,48.5,37.118V2.492a1.277,1.277,0,0,1,1.3-1.226h6.282A1.249,1.249,0,0,1,57.31,2.415v4.52h.153C59.072,2.568,62.212.5,66.349.5c4.213,0,6.895,2.068,8.733,6.435A9.6,9.6,0,0,1,84.428.5a9.5,9.5,0,0,1,7.814,3.83c2.145,2.911,1.685,7.124,1.685,10.878V37.118a1.277,1.277,0,0,1-1.3,1.226H85.884a1.316,1.316,0,0,1-1.226-1.226V18.732a45.948,45.948,0,0,0-.153-6.511c-.536-2.3-1.992-2.988-3.983-2.988a4.511,4.511,0,0,0-4.06,2.834c-.689,1.762-.613,4.673-.613,6.665V37.118a1.277,1.277,0,0,1-1.3,1.226H67.8a1.316,1.316,0,0,1-1.226-1.226V18.732c0-3.83.613-9.576-4.137-9.576-4.826,0-4.673,5.516-4.673,9.576V37.118A1.269,1.269,0,0,1,56.467,38.267Z" transform="translate(-11.346 -0.117)" fill="#ce808a" fill-rule="evenodd"/>
  <path id="Path_225" data-name="Path 225" d="M217.245.4c10.035,0,15.4,8.656,15.4,19.611,0,10.572-5.975,19-15.474,19C207.362,38.933,202,30.353,202,19.628,202,8.827,207.439.4,217.245.4Zm.077,7.124c-4.979,0-5.286,6.818-5.286,11.031s-.077,13.253,5.209,13.253c5.209,0,5.516-7.278,5.516-11.721a33.519,33.519,0,0,0-1-9.193C220.922,8.444,219.466,7.524,217.321,7.524Z" transform="translate(-47.256 -0.094)" fill="#ce808a" fill-rule="evenodd"/>
  <path id="Path_226" data-name="Path 226" d="M256.567,38.267h-6.741a1.316,1.316,0,0,1-1.226-1.226V2.339a1.324,1.324,0,0,1,1.3-1.149h6.282a1.31,1.31,0,0,1,1.226,1V7.471h.153C259.478,2.722,262.083.5,266.756.5a8.921,8.921,0,0,1,7.89,4.06c1.762,2.758,1.762,7.431,1.762,10.8V37.194a1.26,1.26,0,0,1-1.3,1.072h-6.741a1.394,1.394,0,0,1-1.226-1.072V18.349c0-3.83.46-9.346-4.213-9.346a4.435,4.435,0,0,0-3.907,2.758,15.9,15.9,0,0,0-1.073,6.588V37.041A1.408,1.408,0,0,1,256.567,38.267Z" transform="translate(-58.158 -0.117)" fill="#ce808a" fill-rule="evenodd"/>
  <path id="Path_227" data-name="Path 227" d="M135.418,21.526c0,2.6.077,4.826-1.226,7.2a5.422,5.422,0,0,1-4.673,3.064c-2.6,0-4.137-1.992-4.137-4.9,0-5.745,5.133-6.818,10.035-6.818ZM142.235,38a1.385,1.385,0,0,1-1.609.153,16.917,16.917,0,0,1-3.907-4.52c-3.677,3.754-6.358,4.9-11.108,4.9-5.669,0-10.112-3.524-10.112-10.5a11.467,11.467,0,0,1,7.2-11.031c3.677-1.609,8.81-1.915,12.717-2.375v-.843c0-1.609.153-3.524-.843-4.9a4.536,4.536,0,0,0-3.754-1.762c-2.6,0-4.9,1.3-5.439,4.06-.153.613-.536,1.226-1.149,1.226l-6.512-.689a1.179,1.179,0,0,1-1-1.379C118.181,2.375,125.382,0,131.817,0c3.294,0,7.584.843,10.189,3.371,3.294,3.064,2.988,7.2,2.988,11.644V25.51c0,3.141,1.3,4.52,2.528,6.282.46.613.536,1.379,0,1.762-1.456,1.149-3.907,3.294-5.286,4.443Z" transform="translate(-27.02 0)" fill="#ce808a" fill-rule="evenodd"/>
  <path id="Path_228" data-name="Path 228" d="M19.918,21.526c0,2.6.077,4.826-1.226,7.2a5.422,5.422,0,0,1-4.673,3.064c-2.6,0-4.137-1.992-4.137-4.9,0-5.745,5.133-6.818,10.035-6.818ZM26.735,38a1.385,1.385,0,0,1-1.609.153,16.916,16.916,0,0,1-3.907-4.52c-3.677,3.754-6.358,4.9-11.108,4.9C4.443,38.609,0,35.085,0,28.038A11.467,11.467,0,0,1,7.2,17.007c3.677-1.609,8.81-1.915,12.717-2.375v-.843c0-1.609.153-3.524-.843-4.9A4.469,4.469,0,0,0,15.321,7.2c-2.6,0-4.9,1.3-5.439,4.06-.153.613-.536,1.226-1.149,1.226L2.222,11.8a1.179,1.179,0,0,1-1-1.379C2.6,2.375,9.806,0,16.24,0c3.294,0,7.584.843,10.189,3.371,3.294,3.064,2.988,7.2,2.988,11.644V25.51c0,3.141,1.3,4.52,2.528,6.282.46.613.536,1.379,0,1.762C30.489,34.7,28.038,36.847,26.735,38Z" transform="translate(0 0)" fill="#ce808a" fill-rule="evenodd"/>
</svg>
