<svg xmlns="http://www.w3.org/2000/svg" width="300" height="300" viewBox="0 0 300 300"><path fill="none" stroke="#fff" stroke-linecap="round" stroke-linejoin="round" stroke-width="10" d="M45.5 134.5h50l31 63h61l25-63h-51"/><ellipse cx="132" cy="208" fill="#fff" rx="9" ry="11"/><ellipse cx="186" cy="208" fill="#fff" rx="9" ry="11"/><path fill="#fff" d="M228.6 127.1a8.4 8.4 0 0 1-3.1-3.8 15.1 15.1 0 0 1-1.1-5.9 15.5 15.5 0 0 1 1.1-5.9 9 9 0 0 1 3.1-3.8 7.7 7.7 0 0 1 4.5-1.3 7.6 7.6 0 0 1 4.4 1.3 9 9 0 0 1 3.1 3.8 13.8 13.8 0 0 1 1.1 5.9 13.5 13.5 0 0 1-1.1 5.9 8.4 8.4 0 0 1-3.1 3.8 7.7 7.7 0 0 1-4.4 1.4 7.7 7.7 0 0 1-4.5-1.4zm7.8-1.7a6.5 6.5 0 0 0 2.2-3.1 12.3 12.3 0 0 0 .8-4.9 11.5 11.5 0 0 0-.8-4.8 6.1 6.1 0 0 0-2.2-3.1 5.7 5.7 0 0 0-3.3-1.1 5.8 5.8 0 0 0-3.4 1.1 6.7 6.7 0 0 0-2.2 3.1 11.5 11.5 0 0 0-.8 4.8 12.3 12.3 0 0 0 .8 4.9 7.3 7.3 0 0 0 2.2 3.1 5.7 5.7 0 0 0 3.4 1 5.6 5.6 0 0 0 3.3-1z"/></svg>