<svg xmlns="http://www.w3.org/2000/svg"><symbol id="amazon" viewBox="0 0 300 300"><path fill="#7888bf" fill-rule="evenodd" d="M180.5 195.8c-14.7 10.9-36.1 16.7-54.5 16.7a99 99 0 0 1-66.7-25.4c-1.3-1.3-.2-2.9 1.5-2a134.5 134.5 0 0 0 66.7 17.7 132.7 132.7 0 0 0 50.9-10.4c2.5-1 4.6 1.7 2.1 3.4z" opacity=".45" style="isolation:isolate"/><path fill="#7888bf" fill-rule="evenodd" d="M186.7 188.9c-1.9-2.4-12.5-1.2-17.2-.6-1.4.2-1.7-1-.4-1.9 8.5-6 22.3-4.2 23.9-2.2s-.4 15.8-8.4 22.4c-1.2 1-2.4.5-1.8-.9 1.8-4.5 5.8-14.4 3.9-16.8z" opacity=".45" style="isolation:isolate"/><path fill="#46527c" fill-rule="evenodd" d="M169.7 144.4v-5.8a1.4 1.4 0 0 1 1.3-1.4h26a1.5 1.5 0 0 1 1.5 1.4v4.9c0 .8-.7 1.9-1.9 3.7l-13.4 19a28.8 28.8 0 0 1 14.7 3.2 2.8 2.8 0 0 1 1.4 2.2v6.1c0 .9-.9 1.9-1.9 1.4a29.3 29.3 0 0 0-27.3.1 1.5 1.5 0 0 1-1.8-.9 4.3 4.3 0 0 1-.1-.5v-5.9a6.9 6.9 0 0 1 1-3.9l15.6-22.2h-13.4a1.6 1.6 0 0 1-1.7-1.4zm-94.2 36h-7.8a1.8 1.8 0 0 1-1.5-1.3v-40.3a1.5 1.5 0 0 1 1.6-1.4h7.3a1.4 1.4 0 0 1 1.4 1.3v5.2h.2c1.8-5 5.5-7.4 10.3-7.4s8 2.4 10.2 7.4a11.7 11.7 0 0 1 20-3c2.4 3.4 1.9 8.3 1.9 12.7v25.5a1.5 1.5 0 0 1-1.5 1.4h-7.8a1.7 1.7 0 0 1-1.5-1.4v-21.4a47.9 47.9 0 0 0-.2-7.6c-.6-2.7-2.3-3.5-4.6-3.5a5.4 5.4 0 0 0-4.7 3.3c-.8 2.1-.7 5.5-.7 7.8v21.4a1.5 1.5 0 0 1-1.5 1.4h-7.9a1.5 1.5 0 0 1-1.4-1.4v-21.4c0-4.5.7-11.2-4.8-11.2S77 153 77 157.7v21.4a1.4 1.4 0 0 1-1.5 1.3zm145.3-44c11.7 0 18 10 18 22.8s-7 22.1-18.1 22.1-17.6-10.1-17.6-22.6 6.3-22.3 17.7-22.3zm.1 8.3c-5.8 0-6.1 7.9-6.1 12.8s-.1 15.4 6 15.4 6.5-8.4 6.5-13.6a38.6 38.6 0 0 0-1.2-10.7c-1-2.9-2.7-3.9-5.2-3.9zm33 35.7h-7.8a1.6 1.6 0 0 1-1.5-1.4v-40.4a1.5 1.5 0 0 1 1.6-1.3h7.3a1.6 1.6 0 0 1 1.4 1.1v6.2h.2c2.2-5.6 5.2-8.1 10.7-8.1a10.2 10.2 0 0 1 9.1 4.7c2.1 3.2 2.1 8.6 2.1 12.6v25.4a1.5 1.5 0 0 1-1.5 1.2h-7.9a1.7 1.7 0 0 1-1.4-1.2v-22c0-4.4.6-10.8-4.9-10.8a4.8 4.8 0 0 0-4.5 3.2 17.9 17.9 0 0 0-1.3 7.6V179a1.6 1.6 0 0 1-1.6 1.4zm-104.7-19.3c0 3 0 5.6-1.5 8.3a6.3 6.3 0 0 1-5.4 3.6c-3 0-4.8-2.3-4.8-5.7 0-6.7 6-7.9 11.7-7.9zm7.9 19.1a1.5 1.5 0 0 1-1.9.2 20.3 20.3 0 0 1-4.5-5.2c-4.3 4.3-7.4 5.7-13 5.7s-11.7-4.1-11.7-12.3a13.2 13.2 0 0 1 8.4-12.8c4.2-1.9 10.2-2.2 14.8-2.8v-.9c0-1.9.1-4.1-1-5.7a5.2 5.2 0 0 0-4.4-2.1c-3 0-5.7 1.5-6.3 4.7-.2.7-.6 1.5-1.4 1.5l-7.5-.8a1.4 1.4 0 0 1-1.2-1.6c1.7-9.2 10.1-12 17.6-12 3.8 0 8.8 1 11.8 3.9s3.5 8.4 3.5 13.6v12.2c0 3.7 1.5 5.3 2.9 7.3s.7 1.6 0 2.1-4.5 3.8-6.1 5.1zM46.2 161.1c0 3 .1 5.6-1.4 8.3a6.5 6.5 0 0 1-5.5 3.6c-3 0-4.8-2.3-4.8-5.7 0-6.7 6-7.9 11.7-7.9zm7.9 19.1a1.5 1.5 0 0 1-1.9.2 20.3 20.3 0 0 1-4.5-5.2c-4.3 4.3-7.4 5.7-12.9 5.7S23 176.8 23 168.6a13.3 13.3 0 0 1 8.4-12.8c4.3-1.9 10.2-2.2 14.8-2.8v-.9c0-1.9.2-4.1-1-5.7a5 5 0 0 0-4.4-2c-3 0-5.7 1.5-6.3 4.7-.2.7-.6 1.4-1.3 1.4l-7.6-.8a1.3 1.3 0 0 1-1.2-1.5c1.6-9.3 10-12.1 17.5-12.1 3.8 0 8.8 1 11.9 3.9s3.4 8.4 3.4 13.6v12.2c0 3.7 1.6 5.3 3 7.3a1.5 1.5 0 0 1 0 2.1c-1.7 1.2-4.6 3.7-6.1 5z"/></symbol><symbol id="cart" viewBox="0 0 300 300"><path fill="none" stroke="#fff" stroke-linecap="round" stroke-linejoin="round" stroke-width="10" d="M45.5 134.5h50l31 63h61l25-63h-51"/><ellipse cx="132" cy="208" fill="#fff" rx="9" ry="11"/><ellipse cx="186" cy="208" fill="#fff" rx="9" ry="11"/><path fill="#fff" d="M228.6 127.1a8.4 8.4 0 0 1-3.1-3.8 15.1 15.1 0 0 1-1.1-5.9 15.5 15.5 0 0 1 1.1-5.9 9 9 0 0 1 3.1-3.8 7.7 7.7 0 0 1 4.5-1.3 7.6 7.6 0 0 1 4.4 1.3 9 9 0 0 1 3.1 3.8 13.8 13.8 0 0 1 1.1 5.9 13.5 13.5 0 0 1-1.1 5.9 8.4 8.4 0 0 1-3.1 3.8 7.7 7.7 0 0 1-4.4 1.4 7.7 7.7 0 0 1-4.5-1.4zm7.8-1.7a6.5 6.5 0 0 0 2.2-3.1 12.3 12.3 0 0 0 .8-4.9 11.5 11.5 0 0 0-.8-4.8 6.1 6.1 0 0 0-2.2-3.1 5.7 5.7 0 0 0-3.3-1.1 5.8 5.8 0 0 0-3.4 1.1 6.7 6.7 0 0 0-2.2 3.1 11.5 11.5 0 0 0-.8 4.8 12.3 12.3 0 0 0 .8 4.9 7.3 7.3 0 0 0 2.2 3.1 5.7 5.7 0 0 0 3.4 1 5.6 5.6 0 0 0 3.3-1z"/></symbol><symbol id="instagram" viewBox="0 0 300 300"><path fill="#fff" d="M189 117.1a8.3 8.3 0 0 0 0 16.6 8.3 8.3 0 1 0 0-16.6zm-37 10.7a35 35 0 1 0 35 34.9 35 35 0 0 0-35-34.9zm0 57.4a22.5 22.5 0 1 1 22.4-22.5 22.5 22.5 0 0 1-22.4 22.5zm70.6-51.5A42.7 42.7 0 0 0 179.9 91h-56.3a42.7 42.7 0 0 0-42.7 42.7V190a42.7 42.7 0 0 0 42.7 42.7h56.3a42.7 42.7 0 0 0 42.7-42.7zM209.2 190a29.3 29.3 0 0 1-29.3 29.3h-56.3A29.3 29.3 0 0 1 94.3 190v-56.3a29.3 29.3 0 0 1 29.3-29.3h56.3a29.3 29.3 0 0 1 29.3 29.3z"/></symbol><symbol id="credit-card" viewBox="0 0 300 300"><path fill="#46527c" d="M223.6 91.1H76.1A15.2 15.2 0 0 0 61 106.2v87a15.3 15.3 0 0 0 15.1 15.1h147.5a15.3 15.3 0 0 0 15.2-15.1v-87a14.9 14.9 0 0 0-14.7-15.1zm-140.9 22h22a8.9 8.9 0 0 1 8.9 8.8 8.8 8.8 0 0 1-8.6 8.8H82.7a8.9 8.9 0 0 1-8.8-8.8 8.7 8.7 0 0 1 8.6-8.8zm143.4 61.3H73.9v-24.7h152.2z"/></symbol><symbol id="facebook" viewBox="0 0 300 300"><path fill="#fff" fill-rule="evenodd" d="M127.3 153.2v91.3a2.4 2.4 0 0 0 2.4 2.4h33.9a2.4 2.4 0 0 0 2.4-2.4v-92.8h24.6a2.4 2.4 0 0 0 2.4-2.2l2.3-27.9a2.3 2.3 0 0 0-2.3-2.6h-27V99.1a8.5 8.5 0 0 1 8.4-8.4h19a2.4 2.4 0 0 0 2.4-2.4V60.4a2.4 2.4 0 0 0-2.4-2.4h-32a34.1 34.1 0 0 0-34.1 34v27h-16.9a2.4 2.4 0 0 0-2.4 2.4v27.9a2.4 2.4 0 0 0 2.4 2.4h16.9z"/></symbol><symbol id="paypal" viewBox="0 0 300 300"><path fill="#46527c" d="M120.9 145.5c-.7 5.1-4.5 5.1-8.2 5.1h-2.2l1.5-9.4a1.2 1.2 0 0 1 1.2-1h.9c2.6 0 5 0 6.2 1.4s.9 2.1.6 3.9zm-1.6-13.1h-13.9a1.9 1.9 0 0 0-1.9 1.7l-5.7 35.8a1.1 1.1 0 0 0 1 1.3h6.8a2 2 0 0 0 2-1.7l1.5-9.6a2 2 0 0 1 1.9-1.7h4.4c9.2 0 14.5-4.4 15.9-13.3q.9-5.7-1.8-9c-2-2.2-5.5-3.5-10.2-3.5zm32.5 25.9a7.4 7.4 0 0 1-7.6 6.4 5.1 5.1 0 0 1-5.5-6.5 7.4 7.4 0 0 1 7.5-6.4 5.2 5.2 0 0 1 4.4 1.8 5.8 5.8 0 0 1 1.2 4.7zm9.3-13h-6.7a1.1 1.1 0 0 0-1.1 1l-.3 1.9-.5-.7c-1.4-2.1-4.7-2.8-7.9-2.8-7.4 0-13.7 5.6-14.9 13.5a12.7 12.7 0 0 0 2.5 10.3c2.1 2.4 5 3.3 8.4 3.3a12.6 12.6 0 0 0 9.3-3.8l-.3 1.8a1.2 1.2 0 0 0 1 1.4h6.1a2 2 0 0 0 2-1.7l3.6-22.8a1.2 1.2 0 0 0-1.2-1.3zm35.6.1H190a1.8 1.8 0 0 0-1.6.8l-9.3 13.6-3.9-13.1a2.1 2.1 0 0 0-1.9-1.4h-6.6a1.4 1.4 0 0 0-1.2 1.2v.4l7.4 21.7-7 9.9a1.1 1.1 0 0 0 .3 1.6l.7.2h6.7a1.9 1.9 0 0 0 1.6-.9l22.3-32.2a1.1 1.1 0 0 0-.2-1.6.7.7 0 0 0-.6-.2zm23.8.1c-.7 5.1-4.5 5.1-8.3 5.1h-2.1l1.5-9.4a1.2 1.2 0 0 1 1.1-1h1c2.5 0 4.9 0 6.1 1.4s1 2.1.7 3.9zm-1.6-13.1H205a1.9 1.9 0 0 0-1.9 1.7l-5.7 35.8a1.2 1.2 0 0 0 1 1.3h7.3a1.2 1.2 0 0 0 1.3-1.1l1.6-10.2a2 2 0 0 1 1.9-1.6h4.4c9.2 0 14.5-4.5 15.9-13.3.6-3.8 0-6.9-1.8-9s-5.4-3.6-10.1-3.6zm32.5 25.9a7.5 7.5 0 0 1-7.6 6.4 5.4 5.4 0 0 1-4.5-1.8 5.6 5.6 0 0 1-1-4.7 7.4 7.4 0 0 1 7.4-6.4 5.4 5.4 0 0 1 5.8 4.9 4.4 4.4 0 0 1-.2 1.6zm9.3-13H254a1.3 1.3 0 0 0-1.2 1l-.2 1.9-.5-.7c-1.4-2.1-4.7-2.8-7.9-2.8-7.4 0-13.7 5.6-14.9 13.5a12.7 12.7 0 0 0 2.5 10.3c2 2.4 5 3.3 8.4 3.3a12.6 12.6 0 0 0 9.3-3.8l-.3 1.8a1.2 1.2 0 0 0 1 1.4h6.1a1.9 1.9 0 0 0 1.9-1.7l3.6-22.8a1.1 1.1 0 0 0-.9-1.3zm7.9-11.9l-5.8 36.5a1.3 1.3 0 0 0 1 1.3h6a1.9 1.9 0 0 0 1.9-1.7l5.7-35.8a1.2 1.2 0 0 0-1.1-1.3h-6.5a1.2 1.2 0 0 0-1.2 1z"/><path fill="#7888bf" d="M72 134.3c0 .4-.1.8-.1 1.2-2.6 12.9-11.2 17.3-22.3 17.3H44a2.8 2.8 0 0 0-2.7 2.3l-2.8 18.3-.8 5.1a1.5 1.5 0 0 0 1.2 1.7H49a2.3 2.3 0 0 0 2.3-2l.2-.5 1.9-11.9v-.7a2.4 2.4 0 0 1 2.3-2h1.5c9.7 0 17.2-3.9 19.4-15.2 1-4.8.5-8.7-2-11.5a7.1 7.1 0 0 0-2.6-2.1z" opacity=".45" style="isolation:isolate"/><path fill="#59668e" d="M69.4 133.2l-1.2-.3-1.2-.2-5-.3H47a1.6 1.6 0 0 0-1 .2 2.3 2.3 0 0 0-1.3 1.8l-3.2 20.2-.2.6a2.9 2.9 0 0 1 2.7-2.3h5.6c11.1 0 19.7-4.5 22.2-17.4.1-.4.1-.8.2-1.2l-2.1-.8z"/><path fill="#46527c" d="M44.6 134.4a2.3 2.3 0 0 1 1.3-1.8 1.8 1.8 0 0 1 1-.2h15a40.7 40.7 0 0 1 5 .3l1.3.2 1.2.3.5.2a9.5 9.5 0 0 1 2.1.9c.7-4.8 0-8.1-2.6-11s-8-4.7-14.6-4.7H35.7a2.7 2.7 0 0 0-2.7 2.3l-8 50.6a1.6 1.6 0 0 0 1.4 1.9h12l3-18.8z"/></symbol><symbol id="twitter" viewBox="0 0 300 300"><path fill="#fff" d="M231.2 104.4a61.9 61.9 0 0 1-14.7 4.2c2.4-.4 5.9-4.7 7.3-6.4a28.2 28.2 0 0 0 4.9-9c.1-.2.2-.5 0-.7a.7.7 0 0 0-.8 0 74.4 74.4 0 0 1-17.5 6.7 1.2 1.2 0 0 1-1.2-.3l-1.5-1.6a29.6 29.6 0 0 0-8.5-5.1 29 29 0 0 0-13-2.1 29.4 29.4 0 0 0-12.3 3.4 31.3 31.3 0 0 0-9.9 8.2 29.2 29.2 0 0 0-5.9 11.8 31.5 31.5 0 0 0-.4 12.6c.1.7.1.8-.6.7-24-3.6-43.8-12.2-60-30.6-.7-.8-1.1-.8-1.6.1-7.1 10.6-3.7 27.6 5.1 36 1.2 1.1 2.4 2.2 3.7 3.2a30.9 30.9 0 0 1-11.6-3.2c-.7-.5-1-.2-1.1.6s.1 2.2.2 3.4c1.4 10.7 8.8 20.7 19 24.5a16.8 16.8 0 0 0 3.8 1.2c-2.3.5-4.7.9-11.3.4-.8-.2-1.2.2-.8 1 5 13.6 15.7 17.7 23.8 20l3.3.4-.2.2c-2.7 4.1-12 7.2-16.3 8.7a58.2 58.2 0 0 1-24.8 3.1 6 6 0 0 0-2 0c-.3.3 0 .6.4.9a54.8 54.8 0 0 0 5.2 3.1 83.6 83.6 0 0 0 16.5 6.6c29.8 8.2 63.3 2.2 85.6-20 17.5-17.4 23.7-41.4 23.7-65.5 0-1 1.1-1.5 1.8-2a58 58 0 0 0 11.6-12.1 3.8 3.8 0 0 0 .7-2.3c0-.5 0-.4-.6-.1z"/><path fill="#fff" fill-rule="evenodd" d="M134.3 209.5c0-.2 2.6 0 0 0zm51.5-119.3z"/></symbol><symbol id="visa" viewBox="0 0 300 300"><path fill="#46527c" d="M111.5 188.5l10.1-59.5h16.2l-10.2 59.5zm74.9-58A39.4 39.4 0 0 0 172 128c-16.1 0-27.4 8.1-27.4 19.6-.1 8.5 8.1 13.3 14.3 16.1s8.4 4.8 8.4 7.5-5 5.8-9.7 5.8a35 35 0 0 1-15.3-3.1l-2.3-1-2.2 13.3c3.7 1.7 10.8 3.1 18.1 3.2 17.1 0 28.1-8 28.2-20.3.2-6.7-4.2-12-13.5-16.2-5.7-2.7-9.1-4.5-9.1-7.4s2.9-5.1 9.2-5.1a28.1 28.1 0 0 1 12.1 2.3l1.5.7 2.1-12.9m41.6-1.4h-12.5c-3.9 0-6.9 1-8.6 4.9l-24 54.5h17s2.7-7.3 3.4-8.9H224c.5 2 2 8.9 2 8.9h15l-13-59.4m-19.9 38.3l6.5-16.6c-.2.1 1.3-3.5 2.1-5.7l1.2 5.1s3 14.2 3.7 17.2zM97.9 129l-16 40.6-1.7-8.2c-2.8-9.5-12-19.9-22.3-25l14.5 52.1h17.2l25.5-59.5H97.9"/><path fill="#7888bf" d="M66.3 129H40.2l-.2 1.3c20.4 4.9 33.8 16.8 39.4 31.1L73.7 134c-1-3.7-3.8-4.9-7.4-5" opacity=".45" style="isolation:isolate"/></symbol></svg>