<svg xmlns="http://www.w3.org/2000/svg" width="47.531" height="47.531" viewBox="0 0 47.531 47.531">
  <path id="Path_40" data-name="Path 40" d="M23.766,4.225c6.338,0,7.13,0,9.506.264a12.248,12.248,0,0,1,4.489.792A9.274,9.274,0,0,1,42.25,9.77a12.248,12.248,0,0,1,.792,4.489c0,2.377.264,3.169.264,9.506s0,7.13-.264,9.506a12.248,12.248,0,0,1-.792,4.489,9.274,9.274,0,0,1-4.489,4.489,12.248,12.248,0,0,1-4.489.792c-2.377,0-3.169.264-9.506.264s-7.13,0-9.506-.264A12.248,12.248,0,0,1,9.77,42.25a9.274,9.274,0,0,1-4.489-4.489,12.248,12.248,0,0,1-.792-4.489c0-2.377-.264-3.169-.264-9.506s0-7.13.264-9.506A12.248,12.248,0,0,1,5.281,9.77,9.484,9.484,0,0,1,7.13,7.13,4.464,4.464,0,0,1,9.77,5.281a12.248,12.248,0,0,1,4.489-.792c2.377-.264,3.169-.264,9.506-.264m0-4.225C17.428,0,16.372,0,14,.264A16.3,16.3,0,0,0,8.186,1.32,10.337,10.337,0,0,0,3.961,3.961,10.337,10.337,0,0,0,1.32,8.186,12.032,12.032,0,0,0,.264,14C0,16.372,0,17.428,0,23.766s0,7.394.264,9.77A16.3,16.3,0,0,0,1.32,39.345,10.337,10.337,0,0,0,3.961,43.57a10.337,10.337,0,0,0,4.225,2.641A16.3,16.3,0,0,0,14,47.267c2.377.264,3.433.264,9.77.264s7.394,0,9.77-.264a16.3,16.3,0,0,0,5.809-1.056,11.079,11.079,0,0,0,6.866-6.866,16.3,16.3,0,0,0,1.056-5.809c0-2.641.264-3.433.264-9.77s0-7.394-.264-9.77a16.3,16.3,0,0,0-1.056-5.809A10.337,10.337,0,0,0,43.57,3.961,10.337,10.337,0,0,0,39.345,1.32,16.3,16.3,0,0,0,33.536.264C31.159,0,30.1,0,23.766,0m0,11.619A11.951,11.951,0,0,0,11.619,23.766,12.147,12.147,0,1,0,23.766,11.619m0,20.069a7.78,7.78,0,0,1-7.922-7.922,7.781,7.781,0,0,1,7.922-7.922,7.78,7.78,0,0,1,7.922,7.922,7.78,7.78,0,0,1-7.922,7.922m12.675-23.5a2.9,2.9,0,1,0,2.9,2.9,2.93,2.93,0,0,0-2.9-2.9" fill="#fff" fill-rule="evenodd"/>
</svg>
