<svg xmlns="http://www.w3.org/2000/svg" width="300" height="300" viewBox="0 0 300 300"><path fill="#fff" d="M189 117.1a8.3 8.3 0 0 0 0 16.6 8.3 8.3 0 1 0 0-16.6zm-37 10.7a35 35 0 1 0 35 34.9 35 35 0 0 0-35-34.9zm0 57.4a22.5 22.5 0 1 1 22.4-22.5 22.5 22.5 0 0 1-22.4 22.5zm70.6-51.5A42.7 42.7 0 0 0 179.9 91h-56.3a42.7 42.7 0 0 0-42.7 42.7V190a42.7 42.7 0 0 0 42.7 42.7h56.3a42.7 42.7 0 0 0 42.7-42.7zM209.2 190a29.3 29.3 0 0 1-29.3 29.3h-56.3A29.3 29.3 0 0 1 94.3 190v-56.3a29.3 29.3 0 0 1 29.3-29.3h56.3a29.3 29.3 0 0 1 29.3 29.3z"/></svg>