<svg id="Layer_1" data-name="Layer 1" xmlns="http://www.w3.org/2000/svg" width="256" height="256" viewBox="0 0 256 256"><title>Artboard 1</title><g id="Logo_Original_White" data-name="Logo Original White"><line id="Line_8" data-name="Line 8" x1="24.6" y1="202.4" x2="132.6" y2="21.9" fill="none" stroke="#fff" stroke-linecap="round" stroke-width="11"/><line id="Line_6" data-name="Line 6" x1="33.7" y1="145" x2="243" y2="145" fill="none" stroke="#fff" stroke-linecap="round" stroke-width="9"/><line id="Line_7" data-name="Line 7" x1="45.9" y1="219.1" x2="141.8" y2="54.8" fill="none" stroke="#fff" stroke-linecap="round" stroke-width="9"/><line id="Line_9" data-name="Line 9" x1="224.1" y1="219.1" x2="141.8" y2="54.8" fill="none" stroke="#fff" stroke-linecap="round" stroke-width="9"/><g id="_" data-name=" " style="isolation:isolate"><g style="isolation:isolate"><path d="M129.2,159.3a62.1,62.1,0,0,0,9.2-2.8,47,47,0,0,0,9.4-5,28.1,28.1,0,0,0,7.3-7.3,15.2,15.2,0,0,0,2.7-9.4c-.1-2.1-.9-3.5-2.5-4.2a10.1,10.1,0,0,0-5.6-.4,32.8,32.8,0,0,0-7.2,2c-2.5,1.1-5,2.2-7.5,3.5a73.2,73.2,0,0,0-6.4,3.6l-3.7,2.6a65.1,65.1,0,0,0-13.1,14.2,38.7,38.7,0,0,0-2,3.5,25.2,25.2,0,0,0-2.2,4.7,16.5,16.5,0,0,0-1,4.7,4.1,4.1,0,0,0,1.7,3.7,5.1,5.1,0,0,0,3.2,1.2,9.7,9.7,0,0,0,3.4-.6l3.4-1.3a6.2,6.2,0,0,1,3.2-.5l10.7-2,10.8-2,11.3-2.1,4.4-.9,4.4-1.1,4.7-1.2a4,4,0,0,1,4,.6c1.3,1.1,1.9,2,1.7,2.8a3.3,3.3,0,0,1-1.5,2,8.7,8.7,0,0,1-2.9,1.4,16,16,0,0,1-2.8.7l-8.3,1.1-8.5.9a17.7,17.7,0,0,1-1.6,6.5,45.4,45.4,0,0,0-1.7,4.5,58.2,58.2,0,0,1-11.5,16.6,51.8,51.8,0,0,1-16.5,11.5,31.3,31.3,0,0,1-8.6,3,21.9,21.9,0,0,1-9.2-.1,13.6,13.6,0,0,1-7.5-4.3c-2-2.3-2.4-5.1-1.4-8.5a20.3,20.3,0,0,1,4.8-8.5,65.4,65.4,0,0,1,7.1-6.9c1.4-1.3,2.8-2.6,4.2-3.7l4.2-3.6a13.2,13.2,0,0,1-4.4-.8,7.3,7.3,0,0,1-3.6-3,8.9,8.9,0,0,1-1.4-5.1,17.6,17.6,0,0,1,.9-5.5,34.9,34.9,0,0,1,2.2-5.3c.9-1.7,1.9-3.3,2.8-4.8a70.8,70.8,0,0,1,7.3-9.5,73.2,73.2,0,0,1,9-8.6,59.2,59.2,0,0,1,10.3-6.8,63.3,63.3,0,0,1,11.3-4.5,30.7,30.7,0,0,1,5.3-.7,21.8,21.8,0,0,1,5.2.6,13.1,13.1,0,0,1,4.5,2.4,9.7,9.7,0,0,1,2.9,4.4,13.3,13.3,0,0,1,.3,5.6,15.4,15.4,0,0,1-1.9,5.3,30.8,30.8,0,0,1-3.2,4.8,38.3,38.3,0,0,1-3.9,4.1,81.1,81.1,0,0,1-9.2,7.2,94,94,0,0,1-10.3,5.8c-1,.7-2.3,1.3-3.7,2.1a4.2,4.2,0,0,1-4.2-.1,3.2,3.2,0,0,1-1.7-3.7A3.3,3.3,0,0,1,129.2,159.3Zm-2,15.5-2.3.9a6.6,6.6,0,0,1-2.6.5l-.8.6c-1.8,1.2-3.6,2.4-5.3,3.7s-3.4,2.6-5.1,4-4.7,4.4-7,6.7a40.3,40.3,0,0,0-5.5,7.7,7.4,7.4,0,0,0-.7,4.6,4.7,4.7,0,0,0,2,2.6,8.1,8.1,0,0,0,3.8,1.1,16.3,16.3,0,0,0,4.4-.2,37.6,37.6,0,0,0,18.4-7.5,53.1,53.1,0,0,0,13.6-14.8A65.4,65.4,0,0,0,144,175a4.1,4.1,0,0,1,.1-1,7.6,7.6,0,0,0,.1-1.5l-8.4,1.1Z" fill="#fff"/></g></g></g></svg>