<svg xmlns="http://www.w3.org/2000/svg" width="300" height="300" viewBox="0 0 300 300"><path fill="#46527c" d="M120.9 145.5c-.7 5.1-4.5 5.1-8.2 5.1h-2.2l1.5-9.4a1.2 1.2 0 0 1 1.2-1h.9c2.6 0 5 0 6.2 1.4s.9 2.1.6 3.9zm-1.6-13.1h-13.9a1.9 1.9 0 0 0-1.9 1.7l-5.7 35.8a1.1 1.1 0 0 0 1 1.3h6.8a2 2 0 0 0 2-1.7l1.5-9.6a2 2 0 0 1 1.9-1.7h4.4c9.2 0 14.5-4.4 15.9-13.3q.9-5.7-1.8-9c-2-2.2-5.5-3.5-10.2-3.5zm32.5 25.9a7.4 7.4 0 0 1-7.6 6.4 5.1 5.1 0 0 1-5.5-6.5 7.4 7.4 0 0 1 7.5-6.4 5.2 5.2 0 0 1 4.4 1.8 5.8 5.8 0 0 1 1.2 4.7zm9.3-13h-6.7a1.1 1.1 0 0 0-1.1 1l-.3 1.9-.5-.7c-1.4-2.1-4.7-2.8-7.9-2.8-7.4 0-13.7 5.6-14.9 13.5a12.7 12.7 0 0 0 2.5 10.3c2.1 2.4 5 3.3 8.4 3.3a12.6 12.6 0 0 0 9.3-3.8l-.3 1.8a1.2 1.2 0 0 0 1 1.4h6.1a2 2 0 0 0 2-1.7l3.6-22.8a1.2 1.2 0 0 0-1.2-1.3zm35.6.1H190a1.8 1.8 0 0 0-1.6.8l-9.3 13.6-3.9-13.1a2.1 2.1 0 0 0-1.9-1.4h-6.6a1.4 1.4 0 0 0-1.2 1.2v.4l7.4 21.7-7 9.9a1.1 1.1 0 0 0 .3 1.6l.7.2h6.7a1.9 1.9 0 0 0 1.6-.9l22.3-32.2a1.1 1.1 0 0 0-.2-1.6.7.7 0 0 0-.6-.2zm23.8.1c-.7 5.1-4.5 5.1-8.3 5.1h-2.1l1.5-9.4a1.2 1.2 0 0 1 1.1-1h1c2.5 0 4.9 0 6.1 1.4s1 2.1.7 3.9zm-1.6-13.1H205a1.9 1.9 0 0 0-1.9 1.7l-5.7 35.8a1.2 1.2 0 0 0 1 1.3h7.3a1.2 1.2 0 0 0 1.3-1.1l1.6-10.2a2 2 0 0 1 1.9-1.6h4.4c9.2 0 14.5-4.5 15.9-13.3.6-3.8 0-6.9-1.8-9s-5.4-3.6-10.1-3.6zm32.5 25.9a7.5 7.5 0 0 1-7.6 6.4 5.4 5.4 0 0 1-4.5-1.8 5.6 5.6 0 0 1-1-4.7 7.4 7.4 0 0 1 7.4-6.4 5.4 5.4 0 0 1 5.8 4.9 4.4 4.4 0 0 1-.2 1.6zm9.3-13H254a1.3 1.3 0 0 0-1.2 1l-.2 1.9-.5-.7c-1.4-2.1-4.7-2.8-7.9-2.8-7.4 0-13.7 5.6-14.9 13.5a12.7 12.7 0 0 0 2.5 10.3c2 2.4 5 3.3 8.4 3.3a12.6 12.6 0 0 0 9.3-3.8l-.3 1.8a1.2 1.2 0 0 0 1 1.4h6.1a1.9 1.9 0 0 0 1.9-1.7l3.6-22.8a1.1 1.1 0 0 0-.9-1.3zm7.9-11.9l-5.8 36.5a1.3 1.3 0 0 0 1 1.3h6a1.9 1.9 0 0 0 1.9-1.7l5.7-35.8a1.2 1.2 0 0 0-1.1-1.3h-6.5a1.2 1.2 0 0 0-1.2 1z"/><path fill="#7888bf" d="M72 134.3c0 .4-.1.8-.1 1.2-2.6 12.9-11.2 17.3-22.3 17.3H44a2.8 2.8 0 0 0-2.7 2.3l-2.8 18.3-.8 5.1a1.5 1.5 0 0 0 1.2 1.7H49a2.3 2.3 0 0 0 2.3-2l.2-.5 1.9-11.9v-.7a2.4 2.4 0 0 1 2.3-2h1.5c9.7 0 17.2-3.9 19.4-15.2 1-4.8.5-8.7-2-11.5a7.1 7.1 0 0 0-2.6-2.1z" opacity=".45" style="isolation:isolate"/><path fill="#59668e" d="M69.4 133.2l-1.2-.3-1.2-.2-5-.3H47a1.6 1.6 0 0 0-1 .2 2.3 2.3 0 0 0-1.3 1.8l-3.2 20.2-.2.6a2.9 2.9 0 0 1 2.7-2.3h5.6c11.1 0 19.7-4.5 22.2-17.4.1-.4.1-.8.2-1.2l-2.1-.8z"/><path fill="#46527c" d="M44.6 134.4a2.3 2.3 0 0 1 1.3-1.8 1.8 1.8 0 0 1 1-.2h15a40.7 40.7 0 0 1 5 .3l1.3.2 1.2.3.5.2a9.5 9.5 0 0 1 2.1.9c.7-4.8 0-8.1-2.6-11s-8-4.7-14.6-4.7H35.7a2.7 2.7 0 0 0-2.7 2.3l-8 50.6a1.6 1.6 0 0 0 1.4 1.9h12l3-18.8z"/></svg>