<svg id="Group_324" data-name="Group 324" xmlns="http://www.w3.org/2000/svg" width="252.435" height="61.656" viewBox="0 0 252.435 61.656">
  <path id="XMLID_15_" d="M150.453,37.2c-.744,5.033-4.575,5.033-8.293,5.033h-2.116l1.487-9.38a1.163,1.163,0,0,1,1.144-.972h.972c2.517,0,4.919,0,6.12,1.43C150.51,34.166,150.739,35.424,150.453,37.2Zm-1.6-13.1H134.9a1.965,1.965,0,0,0-1.945,1.659l-5.662,35.8a1.158,1.158,0,0,0,1.144,1.315h6.692a1.965,1.965,0,0,0,1.945-1.659l1.544-9.666a1.951,1.951,0,0,1,1.887-1.659h4.4c9.208,0,14.527-4.461,15.9-13.269.629-3.832,0-6.863-1.773-9.037C157.03,25.358,153.484,24.1,148.851,24.1Z" transform="translate(-54.458 -10.316)" fill="#ce808a"/>
  <path id="XMLID_12_" d="M205.032,59.212a7.438,7.438,0,0,1-7.55,6.406,5.693,5.693,0,0,1-4.518-1.83,5.617,5.617,0,0,1-1.03-4.69,7.521,7.521,0,0,1,7.493-6.463,5.65,5.65,0,0,1,4.461,1.83A5.883,5.883,0,0,1,205.032,59.212Zm9.323-12.983h-6.692a1.121,1.121,0,0,0-1.144.972l-.286,1.887-.458-.686c-1.43-2.116-4.69-2.8-7.893-2.8-7.378,0-13.727,5.6-14.928,13.441a12.729,12.729,0,0,0,2.516,10.295c2.059,2.4,4.976,3.374,8.408,3.374a12.842,12.842,0,0,0,9.265-3.832l-.286,1.83A1.207,1.207,0,0,0,204,72.081h6.005a1.965,1.965,0,0,0,1.945-1.659l3.6-22.878A1.235,1.235,0,0,0,214.354,46.229Z" transform="translate(-78.209 -19.52)" fill="#ce808a"/>
  <path id="XMLID_11_" d="M276.9,46.7h-6.692a1.979,1.979,0,0,0-1.6.858L259.342,61.17l-3.946-13.1a1.975,1.975,0,0,0-1.887-1.373h-6.577a1.15,1.15,0,0,0-1.087,1.544l7.378,21.734-6.978,9.837a1.149,1.149,0,0,0,.972,1.83h6.692a1.841,1.841,0,0,0,1.6-.858L277.873,48.53A1.164,1.164,0,0,0,276.9,46.7Z" transform="translate(-105.181 -19.99)" fill="#ce808a"/>
  <path id="XMLID_8_" d="M324.6,37.2c-.744,5.033-4.576,5.033-8.293,5.033h-2.116l1.487-9.38a1.164,1.164,0,0,1,1.144-.972h.972c2.517,0,4.919,0,6.12,1.43C324.653,34.166,324.881,35.424,324.6,37.2Zm-1.6-13.1H309.039a1.866,1.866,0,0,0-1.887,1.659l-5.662,35.8a1.158,1.158,0,0,0,1.144,1.315h7.149a1.263,1.263,0,0,0,1.316-1.144l1.6-10.123a1.952,1.952,0,0,1,1.887-1.659h4.4c9.208,0,14.527-4.461,15.9-13.269.629-3.832,0-6.863-1.773-9.037C331.23,25.358,327.684,24.1,322.994,24.1Z" transform="translate(-129.026 -10.316)" fill="#ce808a"/>
  <path id="XMLID_5_" d="M379.132,59.212a7.438,7.438,0,0,1-7.55,6.406,5.692,5.692,0,0,1-4.518-1.83,5.617,5.617,0,0,1-1.029-4.69,7.513,7.513,0,0,1,7.492-6.406,5.315,5.315,0,0,1,5.6,6.52Zm9.323-12.983h-6.692a1.121,1.121,0,0,0-1.144.972l-.286,1.887-.458-.686c-1.43-2.116-4.69-2.8-7.893-2.8-7.378,0-13.727,5.6-14.928,13.441a12.729,12.729,0,0,0,2.517,10.295c2.059,2.4,4.976,3.374,8.407,3.374a12.842,12.842,0,0,0,9.266-3.832l-.286,1.83a1.207,1.207,0,0,0,1.144,1.373h6.005a1.866,1.866,0,0,0,1.887-1.659l3.6-22.878A1.128,1.128,0,0,0,388.454,46.229Z" transform="translate(-152.735 -19.52)" fill="#ce808a"/>
  <path id="XMLID_4_" d="M421.609,25.029l-5.72,36.49a1.158,1.158,0,0,0,1.144,1.315h5.777a1.965,1.965,0,0,0,1.945-1.659l5.662-35.8A1.207,1.207,0,0,0,429.272,24H422.81A1.234,1.234,0,0,0,421.609,25.029Z" transform="translate(-177.996 -10.274)" fill="#ce808a"/>
  <path id="XMLID_3_" d="M56.564,27.4c-.057.343-.114.744-.172,1.144C53.818,41.47,45.182,45.931,34.143,45.931h-5.6a2.709,2.709,0,0,0-2.688,2.288l-2.86,18.245-.8,5.147a1.444,1.444,0,0,0,1.43,1.659h9.895a2.348,2.348,0,0,0,2.345-2l.114-.515,1.887-11.9.114-.629a2.392,2.392,0,0,1,2.345-2h1.487c9.666,0,17.215-3.946,19.446-15.271.915-4.747.458-8.693-2-11.5A9.057,9.057,0,0,0,56.564,27.4Z" transform="translate(-9.469 -11.729)" fill="#ce808a" opacity="0.604"/>
  <path id="XMLID_2_" d="M56.682,24.858a9.14,9.14,0,0,0-1.2-.286,9.7,9.7,0,0,0-1.258-.229A33.442,33.442,0,0,0,49.247,24H34.262a2.094,2.094,0,0,0-1.029.229A2.357,2.357,0,0,0,31.917,26l-3.2,20.247-.114.572a2.754,2.754,0,0,1,2.688-2.288h5.605c11.038,0,19.675-4.461,22.191-17.444.057-.4.114-.744.172-1.144a11.111,11.111,0,0,0-2.059-.858A2.031,2.031,0,0,0,56.682,24.858Z" transform="translate(-12.219 -10.274)" fill="#ce808a" opacity="0.76"/>
  <path id="XMLID_1_" d="M19.6,15.728a2.357,2.357,0,0,1,1.315-1.773,2.243,2.243,0,0,1,1.029-.229H36.93a34,34,0,0,1,4.976.343c.458.057.858.172,1.258.229.4.114.8.172,1.2.286.172.057.4.114.572.172A11.11,11.11,0,0,1,47,15.614c.744-4.8,0-8.064-2.574-10.981C41.563,1.373,36.415,0,29.838,0H10.678A2.667,2.667,0,0,0,7.99,2.288L-.017,52.9a1.642,1.642,0,0,0,1.6,1.887H13.423L16.4,35.975Z" transform="translate(0.041 0)" fill="#ce808a"/>
</svg>
