<svg xmlns="http://www.w3.org/2000/svg" width="47.531" height="38.553" viewBox="0 0 47.531 38.553">
  <path id="Path_39" data-name="Path 39" d="M53.052,40.553c17.956,0,27.727-14.788,27.727-27.727v-1.32a21.464,21.464,0,0,0,4.753-5.017,21.921,21.921,0,0,1-5.545,1.584,10.274,10.274,0,0,0,4.225-5.281,24.221,24.221,0,0,1-6.073,2.377A9.431,9.431,0,0,0,71.008,2a9.921,9.921,0,0,0-9.77,9.77,5.148,5.148,0,0,0,.264,2.113,27.3,27.3,0,0,1-20.069-10.3A10.113,10.113,0,0,0,40.113,8.6a10.492,10.492,0,0,0,4.225,8.186,8.9,8.9,0,0,1-4.489-1.32h0a9.651,9.651,0,0,0,7.922,9.506,8.141,8.141,0,0,1-2.641.264,4.494,4.494,0,0,1-1.848-.264,10,10,0,0,0,9.242,6.866,19.937,19.937,0,0,1-12.147,4.225A7.311,7.311,0,0,1,38,35.8a24.924,24.924,0,0,0,15.052,4.753" transform="translate(-38 -2)" fill="#fff" fill-rule="evenodd"/>
</svg>
