<svg xmlns="http://www.w3.org/2000/svg" width="300" height="300" viewBox="0 0 300 300"><path fill="#fff" d="M231.2 104.4a61.9 61.9 0 0 1-14.7 4.2c2.4-.4 5.9-4.7 7.3-6.4a28.2 28.2 0 0 0 4.9-9c.1-.2.2-.5 0-.7a.7.7 0 0 0-.8 0 74.4 74.4 0 0 1-17.5 6.7 1.2 1.2 0 0 1-1.2-.3l-1.5-1.6a29.6 29.6 0 0 0-8.5-5.1 29 29 0 0 0-13-2.1 29.4 29.4 0 0 0-12.3 3.4 31.3 31.3 0 0 0-9.9 8.2 29.2 29.2 0 0 0-5.9 11.8 31.5 31.5 0 0 0-.4 12.6c.1.7.1.8-.6.7-24-3.6-43.8-12.2-60-30.6-.7-.8-1.1-.8-1.6.1-7.1 10.6-3.7 27.6 5.1 36 1.2 1.1 2.4 2.2 3.7 3.2a30.9 30.9 0 0 1-11.6-3.2c-.7-.5-1-.2-1.1.6s.1 2.2.2 3.4c1.4 10.7 8.8 20.7 19 24.5a16.8 16.8 0 0 0 3.8 1.2c-2.3.5-4.7.9-11.3.4-.8-.2-1.2.2-.8 1 5 13.6 15.7 17.7 23.8 20l3.3.4-.2.2c-2.7 4.1-12 7.2-16.3 8.7a58.2 58.2 0 0 1-24.8 3.1 6 6 0 0 0-2 0c-.3.3 0 .6.4.9a54.8 54.8 0 0 0 5.2 3.1 83.6 83.6 0 0 0 16.5 6.6c29.8 8.2 63.3 2.2 85.6-20 17.5-17.4 23.7-41.4 23.7-65.5 0-1 1.1-1.5 1.8-2a58 58 0 0 0 11.6-12.1 3.8 3.8 0 0 0 .7-2.3c0-.5 0-.4-.6-.1z"/><path fill="#fff" fill-rule="evenodd" d="M134.3 209.5c0-.2 2.6 0 0 0zm51.5-119.3z"/></svg>