<svg id="Group_323" data-name="Group 323" xmlns="http://www.w3.org/2000/svg" width="150.203" height="46.105" viewBox="0 0 150.203 46.105">
  <path id="Path_229" data-name="Path 229" d="M61.9,45.55,69.513.9H81.659L74.046,45.55Z" transform="translate(-8.952 -0.13)" fill="#ce808a"/>
  <path id="Path_230" data-name="Path 230" d="M121.524,1.882A30.288,30.288,0,0,0,110.661,0C98.6,0,90.132,6.073,90.132,14.712c-.086,6.415,6.073,10.008,10.692,12.146,4.7,2.224,6.33,3.593,6.33,5.56,0,2.994-3.764,4.362-7.271,4.362a26.163,26.163,0,0,1-11.462-2.309l-1.711-.77L85,43.709c2.823,1.283,8.126,2.31,13.6,2.4,12.831,0,21.128-5.988,21.213-15.226.086-5.047-3.165-8.981-10.179-12.146-4.277-2.053-6.843-3.421-6.843-5.56,0-1.882,2.224-3.849,6.928-3.849a21.065,21.065,0,0,1,9.067,1.711l1.112.513,1.625-9.666" transform="translate(-12.294)" fill="#ce808a"/>
  <path id="Path_231" data-name="Path 231" d="M158.473,1h-9.409c-2.908,0-5.132.77-6.415,3.678L124.6,45.565h12.745s2.053-5.474,2.566-6.672h15.568c.342,1.54,1.454,6.672,1.454,6.672h11.291L158.473,1M143.5,29.74c1.026-2.566,4.876-12.488,4.876-12.488-.086.086,1.026-2.566,1.625-4.277l.855,3.849s2.31,10.692,2.823,12.916Z" transform="translate(-18.021 -0.145)" fill="#ce808a"/>
  <path id="Path_232" data-name="Path 232" d="M44.924.9,32.948,31.351l-1.283-6.159C29.527,18.093,22.6,10.309,14.9,6.46L25.763,45.55H38.679L57.84.9H44.924" transform="translate(-2.155 -0.13)" fill="#ce808a"/>
  <path id="Path_233" data-name="Path 233" d="M19.759.9H.171L0,1.841C15.311,5.519,25.4,14.5,29.6,25.193L25.319,4.664C24.549,1.841,22.411.986,19.759.9" transform="translate(0 -0.13)" fill="#ce808a" opacity="0.454"/>
</svg>
