<svg xmlns="http://www.w3.org/2000/svg" width="300" height="300" viewBox="0 0 300 300"><path fill="#46527c" d="M111.5 188.5l10.1-59.5h16.2l-10.2 59.5zm74.9-58A39.4 39.4 0 0 0 172 128c-16.1 0-27.4 8.1-27.4 19.6-.1 8.5 8.1 13.3 14.3 16.1s8.4 4.8 8.4 7.5-5 5.8-9.7 5.8a35 35 0 0 1-15.3-3.1l-2.3-1-2.2 13.3c3.7 1.7 10.8 3.1 18.1 3.2 17.1 0 28.1-8 28.2-20.3.2-6.7-4.2-12-13.5-16.2-5.7-2.7-9.1-4.5-9.1-7.4s2.9-5.1 9.2-5.1a28.1 28.1 0 0 1 12.1 2.3l1.5.7 2.1-12.9m41.6-1.4h-12.5c-3.9 0-6.9 1-8.6 4.9l-24 54.5h17s2.7-7.3 3.4-8.9H224c.5 2 2 8.9 2 8.9h15l-13-59.4m-19.9 38.3l6.5-16.6c-.2.1 1.3-3.5 2.1-5.7l1.2 5.1s3 14.2 3.7 17.2zM97.9 129l-16 40.6-1.7-8.2c-2.8-9.5-12-19.9-22.3-25l14.5 52.1h17.2l25.5-59.5H97.9"/><path fill="#7888bf" d="M66.3 129H40.2l-.2 1.3c20.4 4.9 33.8 16.8 39.4 31.1L73.7 134c-1-3.7-3.8-4.9-7.4-5" opacity=".45" style="isolation:isolate"/></svg>